<?xml version="1.0" standalone="no"?>
<!DOCTYPE svg PUBLIC "-//W3C//DTD SVG 20010904//EN"
 "http://www.w3.org/TR/2001/REC-SVG-20010904/DTD/svg10.dtd">
<svg version="1.0" xmlns="http://www.w3.org/2000/svg"
 width="700.000000pt" height="700.000000pt" viewBox="0 0 700.000000 700.000000"
 preserveAspectRatio="xMidYMid meet">
<metadata>
Created by potrace 1.11, written by Peter Selinger 2001-2013
</metadata>
<g transform="translate(0.000000,700.000000) scale(0.100000,-0.100000)"
fill="#000000" stroke="none">
<path d="M3452 6987 c-49 -29 -59 -79 -53 -269 2 -69 76 -115 143 -89 47 18
60 50 62 158 2 110 -7 160 -34 185 -25 23 -89 32 -118 15z"/>
<path d="M1751 6529 c-35 -21 -51 -48 -51 -86 0 -24 20 -64 110 -218 31 -53
91 -160 99 -175 12 -23 79 -53 105 -46 39 10 75 45 82 81 5 28 0 48 -26 97
-55 106 -187 322 -207 340 -28 26 -77 29 -112 7z"/>
<path d="M5149 6527 c-18 -12 -54 -58 -81 -102 -42 -70 -48 -86 -44 -124 4
-49 27 -77 72 -90 64 -18 104 19 180 163 24 47 27 59 19 91 -18 69 -91 100
-146 62z"/>
<path d="M3454 6390 c-36 -14 -54 -54 -54 -118 0 -49 4 -64 24 -85 44 -48 102
-48 149 -1 26 26 31 44 29 112 -3 76 -75 122 -148 92z"/>
<path d="M4896 6109 c-35 -28 -86 -130 -86 -172 0 -70 84 -116 148 -83 43 22
107 151 97 195 -15 70 -104 103 -159 60z"/>
<path d="M2121 5886 c-29 -16 -50 -52 -51 -86 0 -14 17 -55 38 -91 21 -35 41
-71 45 -79 4 -8 17 -31 29 -50 12 -19 41 -71 66 -115 24 -44 54 -91 67 -104
47 -49 140 -28 163 36 16 48 12 58 -76 213 -85 150 -156 262 -175 275 -26 18
-74 19 -106 1z"/>
<path d="M4665 5685 c-22 -11 -47 -44 -87 -113 -69 -119 -73 -132 -54 -176 25
-61 100 -84 149 -45 35 26 137 208 137 242 0 41 -20 75 -55 92 -41 19 -52 19
-90 0z"/>
<path d="M3484 5393 c-23 -8 -52 -26 -66 -41 -14 -15 -143 -230 -287 -479
-281 -487 -285 -495 -238 -548 32 -37 78 -47 119 -27 28 14 61 65 205 312 94
162 180 311 191 330 51 92 64 116 71 122 4 4 1 -34 -5 -85 -7 -50 -15 -117
-19 -147 -3 -30 -8 -66 -10 -80 -6 -37 -14 -99 -19 -145 -3 -22 -10 -71 -15
-110 -6 -38 -13 -92 -16 -120 -3 -27 -8 -63 -10 -80 -2 -16 -7 -52 -10 -80 -4
-27 -8 -57 -10 -65 -7 -25 -19 -152 -19 -201 1 -60 30 -108 86 -139 l43 -24
560 -2 c308 -1 561 -2 563 -3 1 0 -37 -52 -86 -113 -48 -62 -96 -124 -105
-138 -26 -38 -22 -84 12 -122 24 -27 36 -33 69 -32 22 1 50 9 63 19 27 21 245
299 272 348 42 74 2 188 -79 227 -39 19 -62 20 -617 20 l-577 0 6 38 c9 63 12
85 19 142 4 30 8 66 10 80 6 43 15 104 19 140 6 47 36 277 42 318 2 17 6 47 8
65 3 17 10 73 16 122 6 50 13 99 15 110 10 51 19 147 20 215 0 63 -4 80 -23
108 -43 60 -129 88 -198 65z"/>
<path d="M498 5277 c-48 -39 -56 -98 -20 -140 9 -10 41 -32 71 -49 86 -48 229
-131 259 -150 15 -10 34 -21 42 -25 8 -4 65 -37 127 -74 62 -38 127 -71 145
-74 73 -14 139 74 106 142 -14 29 -69 65 -378 245 -276 160 -300 169 -352 125z"/>
<path d="M6365 5272 c-27 -16 -70 -40 -95 -54 -25 -14 -65 -37 -91 -52 -76
-43 -93 -69 -90 -134 2 -35 56 -82 95 -82 43 0 314 156 342 198 32 46 20 103
-28 136 -33 23 -77 19 -133 -12z"/>
<path d="M5810 4956 c-36 -17 -128 -71 -204 -120 -77 -48 -158 -97 -180 -108
-58 -29 -85 -56 -92 -93 -12 -65 50 -130 112 -119 37 7 144 65 277 152 58 38
140 86 181 107 83 42 103 70 93 131 -5 30 -36 71 -56 75 -47 9 -74 4 -131 -25z"/>
<path d="M1385 4787 c-51 -23 -73 -90 -45 -141 15 -28 183 -128 221 -131 63
-5 116 57 105 121 -8 38 -31 60 -123 113 -84 48 -117 56 -158 38z"/>
<path d="M2565 3846 c-17 -7 -35 -19 -41 -27 -21 -25 -347 -593 -367 -638 -34
-77 -3 -171 73 -215 34 -20 51 -21 560 -24 288 -2 526 -5 528 -7 3 -3 -198
-544 -227 -610 -19 -42 -154 -403 -178 -474 -22 -66 -23 -79 -13 -122 25 -102
148 -161 240 -114 39 19 38 19 130 136 36 46 73 93 83 104 16 19 138 176 231
295 23 30 93 120 156 200 336 428 390 499 398 521 13 34 -3 84 -34 108 -26 20
-76 27 -108 15 -9 -3 -145 -171 -303 -373 -451 -575 -513 -653 -513 -645 0 4
43 120 96 258 53 138 120 316 150 396 30 80 59 154 63 165 55 127 66 199 37
251 -24 45 -38 59 -76 80 -33 18 -65 19 -553 20 -284 1 -519 3 -521 5 -2 2 71
131 161 287 107 185 165 293 165 313 1 42 -19 75 -57 94 -39 18 -41 18 -80 1z"/>
<path d="M100 3602 c-57 -7 -100 -51 -100 -102 0 -34 29 -80 58 -92 45 -18
197 -12 232 9 63 37 57 145 -9 173 -28 11 -131 18 -181 12z"/>
<path d="M550 3602 c-78 -9 -120 -78 -88 -146 23 -53 48 -59 216 -57 137 1
157 4 183 22 53 37 51 122 -4 163 -25 18 -42 21 -155 21 -70 0 -138 -1 -152
-3z"/>
<path d="M1104 3598 c-85 -22 -99 -144 -22 -184 42 -22 207 -22 240 0 67 44
60 146 -12 176 -34 14 -164 19 -206 8z"/>
<path d="M5730 3602 c-57 -7 -100 -51 -100 -102 0 -35 27 -76 59 -90 40 -16
460 -17 491 0 12 6 29 25 39 41 37 60 -11 148 -82 150 -90 3 -385 4 -407 1z"/>
<path d="M6422 3598 c-83 -22 -100 -136 -28 -183 22 -15 58 -17 274 -17 142 1
259 5 274 11 29 11 58 57 58 91 0 36 -28 77 -61 91 -36 14 -465 20 -517 7z"/>
<path d="M1539 2481 c-31 -10 -80 -37 -229 -128 -63 -38 -139 -82 -167 -98
-66 -35 -82 -53 -90 -99 -4 -29 0 -42 20 -70 35 -46 81 -54 139 -25 44 22 200
111 242 139 13 8 54 33 92 54 38 22 79 48 91 59 51 46 33 135 -32 163 -19 8
-36 14 -37 13 -2 0 -15 -4 -29 -8z"/>
<path d="M5395 2476 c-64 -28 -82 -114 -34 -161 33 -32 424 -254 459 -262 32
-6 93 25 104 53 21 55 -1 111 -57 146 -108 67 -397 228 -418 232 -13 3 -38 0
-54 -8z"/>
<path d="M790 2051 c-25 -15 -81 -48 -125 -71 -44 -24 -89 -48 -100 -54 -52
-29 -88 -62 -101 -92 -12 -29 -12 -39 0 -68 17 -41 51 -66 90 -66 28 0 203 90
328 169 84 52 104 105 63 168 -33 50 -90 55 -155 14z"/>
<path d="M6213 2000 c-25 -10 -50 -45 -54 -75 -6 -48 11 -81 61 -113 27 -18
51 -32 53 -32 3 0 36 -18 73 -40 39 -23 82 -40 99 -40 83 0 130 106 74 166
-33 35 -231 144 -260 143 -13 0 -34 -4 -46 -9z"/>
<path d="M4562 1650 c-35 -22 -39 -29 -45 -75 -4 -31 5 -51 85 -187 53 -92 97
-115 158 -83 31 16 49 42 56 82 4 23 -39 115 -101 214 -45 70 -92 86 -153 49z"/>
<path d="M3449 1355 c-43 -23 -53 -64 -52 -216 1 -143 7 -168 46 -194 50 -32
110 -20 143 30 21 32 25 285 4 334 -22 54 -87 75 -141 46z"/>
<path d="M1989 1051 c-23 -12 -49 -47 -99 -136 -36 -66 -94 -167 -128 -225
-34 -58 -62 -115 -62 -127 0 -55 36 -98 90 -107 24 -4 100 30 100 45 0 4 34
64 76 135 106 178 160 277 168 308 4 15 0 40 -8 60 -23 56 -82 76 -137 47z"/>
<path d="M4922 990 c-53 -53 -47 -76 75 -289 115 -202 141 -236 181 -244 35
-7 85 14 106 44 31 45 20 78 -76 245 -50 87 -97 170 -104 184 -32 60 -59 82
-105 87 -41 5 -48 2 -77 -27z"/>
<path d="M3429 641 c-26 -26 -37 -64 -30 -104 1 -5 1 -110 1 -234 0 -244 5
-268 55 -291 63 -29 124 1 142 69 7 27 10 378 4 502 -2 45 -51 87 -101 87 -33
0 -48 -6 -71 -29z"/>
</g>
</svg>
